<svg id="Layer_1" data-name="Layer 1" xmlns="http://www.w3.org/2000/svg" viewBox="0 0 678.52 299.36"><defs><style>.cls-1{font-size:188.26px;}.cls-1,.cls-2,.cls-3{fill:#231f20;}.cls-1,.cls-2{font-family:AnandaBlackPersonalUse-Regular, Ananda Black Personal Use;}.cls-2{font-size:135.41px;}</style></defs><text class="cls-1" transform="translate(1.16 180.95) scale(0.9 1)">Di</text><text class="cls-1" transform="translate(211.73 175.83) scale(0.9 1)">Y</text><text x="-37" y="-136.27"/><text class="cls-2" transform="translate(457.35 143.94) scale(1.38 1)">e</text><text class="cls-2" transform="translate(535.58 142.8) scale(1.38 1)">r</text><text class="cls-2" transform="translate(613.54 136.94) scale(1.38 1)">s</text><path class="cls-3" d="M426.21,259.31l-5.23-3a57.79,57.79,0,0,1,2.76-8.34,52.66,52.66,0,0,1,4.53-8.72,27.5,27.5,0,0,1,6.08-6.82,11.76,11.76,0,0,1,7.41-2.67,18.14,18.14,0,0,1,8.08,1.72,39.67,39.67,0,0,1,6.5,4,64.89,64.89,0,0,0,5.86,4,11.51,11.51,0,0,0,6,1.73,7.77,7.77,0,0,0,6.9-4,61.34,61.34,0,0,0,5.1-11l5.29,3a64.09,64.09,0,0,1-2.81,8.35,53.62,53.62,0,0,1-4.56,8.76,28,28,0,0,1-6.09,6.86,11.63,11.63,0,0,1-7.37,2.67,16.41,16.41,0,0,1-8-1.93,37.44,37.44,0,0,1-6.56-4.52,59.74,59.74,0,0,0-5.91-4.52,10.8,10.8,0,0,0-6.06-1.94c-2.93,0-5.23,1.58-6.92,4.73A91.13,91.13,0,0,0,426.21,259.31Z" transform="translate(-37 -136.27)"/></svg>