<svg xmlns="http://www.w3.org/2000/svg" xmlns:xlink="http://www.w3.org/1999/xlink" width="500" zoomAndPan="magnify" viewBox="0 0 375 225" height="300" preserveAspectRatio="xMidYMid meet" version="1.0"><defs><g/><clipPath id="3f2589c2d5"><path d="M 0 14 L 375 14 L 375 162.730469 L 0 162.730469 Z M 0 14 " clip-rule="nonzero"/></clipPath></defs><g clip-path="url(#3f2589c2d5)"><path fill="#000000" d="M 205.238281 24.589844 L 207.644531 16.269531 C 207.417969 16.207031 206.839844 16.917969 206.289062 17.0625 C 205.726562 17.210938 198.933594 17.121094 197.980469 16.886719 C 197.03125 16.65625 197.007812 14.734375 196.226562 14.59375 C 196.199219 14.589844 196.175781 14.601562 196.148438 14.621094 L 191.984375 28.957031 L 196.636719 29.363281 Z M 192.90625 28.542969 C 192.871094 28.660156 192.746094 28.734375 192.625 28.695312 C 192.507812 28.660156 192.441406 28.535156 192.472656 28.417969 C 192.503906 28.300781 192.632812 28.230469 192.75 28.265625 C 192.871094 28.300781 192.9375 28.421875 192.90625 28.542969 Z M 204.886719 23.925781 C 205.007812 23.960938 205.074219 24.085938 205.039062 24.207031 C 205.003906 24.324219 204.878906 24.394531 204.761719 24.359375 C 204.640625 24.324219 204.574219 24.199219 204.605469 24.078125 C 204.640625 23.960938 204.765625 23.890625 204.886719 23.925781 Z M 197.746094 19.480469 L 198.273438 19.460938 C 198.539062 19.527344 198.765625 19.691406 198.917969 19.917969 C 199.121094 19.601562 199.460938 19.503906 199.84375 19.492188 C 200.222656 19.480469 200.566406 19.550781 200.769531 19.855469 C 200.972656 19.539062 201.3125 19.441406 201.691406 19.429688 C 202.074219 19.417969 202.414062 19.492188 202.621094 19.792969 C 202.773438 19.558594 203 19.378906 203.261719 19.296875 L 203.761719 19.28125 C 204.289062 19.265625 204.71875 19.730469 204.71875 20.324219 C 204.722656 20.921875 204.296875 21.417969 203.769531 21.433594 L 197.753906 21.632812 C 197.222656 21.648438 196.792969 21.179688 196.792969 20.585938 C 196.796875 19.996094 197.222656 19.496094 197.746094 19.480469 Z M 196.539062 29.015625 C 196.421875 28.976562 196.351562 28.851562 196.386719 28.734375 C 196.421875 28.617188 196.546875 28.546875 196.667969 28.582031 C 196.785156 28.617188 196.855469 28.742188 196.820312 28.859375 C 196.78125 28.980469 196.65625 29.050781 196.539062 29.015625 Z M 123.988281 122.804688 L 135.65625 122.804688 L 135.65625 110.421875 L 123.988281 110.421875 Z M 196.667969 28.679688 L 196.605469 28.660156 L 196.578125 28.757812 L 196.484375 28.730469 L 196.46875 28.792969 L 196.5625 28.816406 L 196.535156 28.914062 L 196.59375 28.933594 L 196.621094 28.835938 L 196.71875 28.863281 L 196.738281 28.804688 L 196.640625 28.773438 Z M 286.429688 155.851562 L 310.320312 143.441406 L 304.429688 136.078125 L 286.429688 130.4375 L 286.429688 121.300781 L 298.050781 121.300781 L 281.605469 98.128906 L 298.5625 86.886719 L 303.273438 87.203125 L 294.808594 74.40625 L 293.261719 78.871094 L 276.042969 90.285156 L 261.300781 69.515625 L 262.890625 67.378906 C 262.890625 67.378906 264.011719 63.089844 266.023438 60.335938 C 266.746094 59.34375 269.671875 58.390625 269.671875 58.390625 L 271.578125 55.867188 L 269.59375 54.300781 L 283.359375 36.816406 L 284.753906 36.367188 L 288.394531 32.097656 L 286.824219 30.859375 L 286.765625 30.8125 L 286.703125 30.761719 L 285.136719 29.527344 L 281.839844 34.066406 L 281.726562 35.53125 L 267.960938 53.011719 L 265.980469 51.449219 L 263.972656 53.890625 C 263.972656 53.890625 263.730469 56.964844 262.9375 57.898438 C 260.730469 60.5 256.828125 62.59375 256.828125 62.59375 L 256.589844 62.878906 L 250.613281 54.457031 L 242.859375 54.457031 C 246.890625 47.484375 251.199219 40.019531 251.199219 40.019531 C 251.824219 38.941406 253.769531 39.324219 255.429688 36.652344 C 256.757812 34.511719 255.945312 31.679688 253.765625 30.417969 C 251.585938 29.15625 248.726562 29.863281 247.539062 32.082031 C 246.054688 34.855469 247.355469 36.351562 246.734375 37.429688 C 246.734375 37.429688 241.273438 46.882812 236.898438 54.453125 L 226.734375 54.453125 L 226.734375 45.105469 L 208.269531 45.105469 L 208.269531 54.453125 L 190.164062 54.453125 L 190.171875 54.4375 L 190.660156 54.40625 L 190.390625 54 L 190.414062 53.960938 L 190.898438 53.933594 L 190.632812 53.527344 L 190.652344 53.484375 L 191.136719 53.460938 L 190.871094 53.054688 L 190.894531 53.011719 L 191.378906 52.984375 L 191.113281 52.578125 L 191.132812 52.539062 L 191.617188 52.511719 L 191.351562 52.105469 L 191.371094 52.066406 L 191.855469 52.039062 L 191.59375 51.632812 L 191.613281 51.589844 L 192.09375 51.5625 L 191.832031 51.160156 L 191.851562 51.117188 L 192.332031 51.089844 L 192.070312 50.683594 L 192.09375 50.640625 L 192.570312 50.613281 L 192.308594 50.207031 L 192.332031 50.164062 L 192.8125 50.136719 L 192.546875 49.734375 L 192.570312 49.6875 L 193.054688 49.660156 L 192.789062 49.257812 L 192.8125 49.214844 L 193.292969 49.183594 L 193.03125 48.78125 L 193.054688 48.738281 L 193.53125 48.710938 L 193.269531 48.308594 L 193.292969 48.261719 L 193.769531 48.230469 L 193.507812 47.832031 L 193.53125 47.785156 L 194.011719 47.757812 L 193.746094 47.359375 L 193.769531 47.308594 L 194.25 47.28125 L 193.988281 46.882812 L 194.015625 46.832031 L 194.492188 46.808594 L 194.230469 46.40625 L 194.253906 46.359375 L 194.726562 46.328125 L 194.46875 45.929688 L 194.492188 45.878906 L 194.964844 45.855469 L 194.707031 45.457031 L 194.730469 45.40625 L 195.207031 45.382812 L 194.945312 44.984375 L 194.972656 44.933594 L 195.449219 44.90625 L 195.1875 44.511719 L 195.214844 44.460938 L 195.6875 44.433594 L 195.425781 44.035156 L 195.453125 43.984375 L 195.925781 43.957031 L 195.667969 43.5625 L 195.691406 43.507812 L 196.164062 43.484375 L 195.90625 43.085938 L 195.933594 43.035156 L 196.40625 43.003906 L 196.148438 42.609375 L 196.171875 42.554688 L 196.644531 42.527344 L 196.386719 42.136719 L 196.414062 42.082031 L 196.886719 42.054688 L 196.628906 41.660156 L 196.65625 41.601562 L 197.125 41.578125 L 196.871094 41.183594 L 196.898438 41.128906 L 197.367188 41.105469 L 197.109375 40.710938 L 197.136719 40.65625 L 197.605469 40.628906 L 197.347656 40.238281 L 197.375 40.183594 L 197.84375 40.15625 L 197.585938 39.765625 L 197.617188 39.707031 L 198.082031 39.679688 L 197.828125 39.289062 L 197.855469 39.234375 L 198.320312 39.207031 L 198.066406 38.816406 L 198.09375 38.757812 L 198.558594 38.734375 L 198.304688 38.34375 L 198.332031 38.285156 L 198.796875 38.257812 L 198.539062 37.867188 L 198.570312 37.808594 L 199.035156 37.78125 L 198.78125 37.390625 L 198.8125 37.332031 L 199.273438 37.304688 L 199.023438 36.917969 L 199.050781 36.859375 L 199.515625 36.828125 L 199.261719 36.441406 L 199.292969 36.378906 L 199.757812 36.355469 L 199.5 35.96875 L 199.53125 35.90625 L 199.996094 35.878906 L 199.742188 35.492188 L 199.773438 35.433594 L 200.234375 35.40625 L 199.984375 35.019531 L 200.015625 34.957031 L 200.476562 34.929688 L 200.222656 34.542969 L 200.253906 34.480469 L 200.714844 34.453125 L 200.460938 34.070312 L 200.496094 34.003906 L 200.957031 33.980469 L 200.703125 33.59375 L 200.734375 33.527344 L 201.195312 33.503906 L 200.941406 33.117188 L 200.976562 33.054688 L 201.433594 33.027344 L 201.179688 32.644531 L 201.214844 32.578125 L 201.671875 32.554688 L 201.421875 32.171875 L 201.453125 32.105469 L 201.914062 32.082031 L 201.664062 31.695312 L 201.695312 31.628906 L 202.152344 31.601562 L 201.902344 31.222656 L 201.933594 31.15625 L 202.390625 31.128906 L 202.140625 30.746094 L 202.171875 30.679688 L 202.628906 30.65625 L 202.378906 30.273438 L 202.410156 30.207031 L 202.867188 30.183594 L 202.617188 29.800781 L 202.652344 29.734375 L 203.105469 29.707031 L 202.855469 29.328125 L 202.890625 29.261719 L 203.34375 29.234375 L 203.09375 28.851562 L 203.128906 28.785156 L 203.582031 28.757812 L 203.335938 28.378906 L 203.371094 28.3125 L 203.824219 28.285156 L 203.574219 27.90625 L 203.609375 27.835938 L 204.0625 27.808594 L 203.8125 27.425781 L 203.847656 27.359375 L 204.300781 27.332031 L 204.050781 26.953125 L 204.085938 26.882812 L 204.539062 26.859375 L 204.289062 26.480469 L 204.324219 26.410156 L 204.777344 26.382812 L 204.527344 26.007812 L 204.566406 25.9375 L 205.019531 25.910156 L 204.769531 25.535156 L 204.808594 25.464844 L 205.257812 25.4375 L 205.046875 25.117188 L 196.734375 29.726562 L 191.898438 29.308594 L 184.597656 54.449219 L 163.109375 54.449219 C 161.617188 51.667969 159.636719 47.757812 159.175781 45.839844 C 158.222656 41.816406 162.855469 36.882812 162.855469 36.882812 L 162.757812 36.488281 L 147.929688 40.027344 L 148.019531 40.421875 C 148.019531 40.421875 154.382812 42.734375 155.339844 46.757812 C 155.714844 48.339844 155.773438 51.589844 155.738281 54.453125 L 135.054688 54.453125 C 133.574219 52.496094 132.007812 50.585938 130.328125 48.652344 C 130.25 48.472656 130.039062 48.414062 129.800781 48.417969 L 127.757812 45.902344 C 127.605469 45.667969 127.203125 45.6875 126.730469 45.859375 C 126.855469 45.960938 126.96875 46.066406 127.082031 46.164062 C 127.101562 46.183594 127.117188 46.199219 127.132812 46.214844 C 127.359375 46.507812 127.375 47.023438 126.746094 47.59375 C 126.433594 47.871094 126.054688 48.089844 125.6875 48.167969 C 125.339844 48.238281 125.007812 48.191406 124.761719 47.957031 C 124.730469 47.925781 124.523438 47.738281 124.433594 47.65625 C 124.363281 47.820312 124.339844 47.976562 124.378906 48.113281 L 124.378906 48.117188 C 124.398438 48.160156 124.414062 48.203125 124.445312 48.246094 C 124.464844 48.277344 126.460938 51.113281 126.460938 51.113281 C 126.449219 51.246094 126.46875 51.371094 126.523438 51.484375 L 126.519531 51.484375 C 126.527344 51.496094 126.535156 51.507812 126.535156 51.515625 C 126.546875 51.535156 126.554688 51.554688 126.570312 51.574219 C 126.570312 51.578125 126.578125 51.582031 126.578125 51.582031 C 127.140625 52.554688 127.691406 53.507812 128.234375 54.449219 L 121.410156 54.449219 L 107.097656 74.1875 C 100.386719 68.265625 92.296875 61.117188 91.164062 60.117188 C 89.183594 58.371094 91.46875 53.761719 86.875 49.710938 C 84.730469 47.8125 80.753906 46.335938 78.214844 47.132812 L 82.75 51.136719 C 84.421875 52.609375 84.617188 54.503906 82.800781 56.566406 C 80.980469 58.628906 79.082031 58.671875 77.410156 57.195312 L 74.113281 54.28125 C 73.640625 56.902344 74.367188 59.578125 76.515625 61.472656 C 81.105469 65.527344 85.386719 62.683594 87.363281 64.429688 C 88.519531 65.453125 96.917969 72.871094 103.707031 78.863281 L 89.0625 99.058594 L 56.179688 82.003906 L 55.453125 81.59375 L 50.324219 90.660156 L 81.320312 109.734375 L 72.9375 121.289062 L 84.558594 121.289062 L 84.558594 124.730469 C 84.222656 124.496094 83.804688 124.347656 83.347656 124.304688 L 79.976562 124.015625 C 79.390625 123.964844 78.847656 123.90625 78.425781 124.265625 C 78.203125 124.449219 78.023438 124.675781 77.886719 124.929688 L 70.605469 124.300781 C 68.074219 124.078125 65.664062 124.722656 63.667969 125.980469 L 62.585938 121.316406 L 72.222656 119.078125 C 73.140625 118.863281 73.710938 117.945312 73.496094 117.027344 C 73.285156 116.109375 72.367188 115.539062 71.449219 115.75 L 60.152344 118.378906 C 59.234375 118.59375 58.664062 119.507812 58.878906 120.425781 L 60.820312 128.808594 L 60.03125 129.667969 C 59.777344 130.089844 59.550781 130.53125 59.351562 130.988281 L 58.371094 131.894531 L 56.550781 129.507812 L 54.347656 131.542969 L 52.527344 129.160156 L 50.328125 131.195312 L 48.609375 128.941406 L 48.511719 128.8125 L 46.308594 130.851562 L 44.492188 128.464844 L 42.289062 130.5 L 40.472656 128.117188 L 38.273438 130.15625 L 36.453125 127.769531 L 34.25 129.808594 L 32.429688 127.421875 L 30.230469 129.457031 L 28.410156 127.074219 L 26.210938 129.109375 L 24.390625 126.726562 L 22.191406 128.761719 L 20.371094 126.378906 L 18.171875 128.414062 L 16.351562 126.03125 L 14.152344 128.066406 L 12.335938 125.683594 L 9.730469 128.097656 C 5.160156 127.773438 1.160156 131.085938 0.773438 135.542969 C 0.382812 140.039062 3.828125 144.023438 8.449219 144.429688 L 10.414062 146.988281 L 12.621094 144.953125 L 14.453125 147.339844 L 16.664062 145.300781 L 18.488281 147.6875 L 20.699219 145.652344 L 22.53125 148.039062 L 24.738281 146.003906 L 26.566406 148.386719 L 28.777344 146.351562 L 30.605469 148.734375 L 32.816406 146.699219 L 34.644531 149.085938 L 36.851562 147.050781 L 38.679688 149.433594 L 40.890625 147.398438 L 42.71875 149.785156 L 44.898438 147.777344 L 46.703125 150.128906 L 46.730469 150.105469 L 46.757812 150.136719 L 46.78125 150.113281 L 46.785156 150.050781 L 48.910156 148.09375 L 50.738281 150.480469 L 52.949219 148.445312 L 54.777344 150.832031 L 56.988281 148.792969 L 57.1875 149.058594 C 57.113281 150.164062 57.9375 151.132812 59.046875 151.230469 L 84.554688 153.4375 L 84.554688 157.769531 C 62.15625 159.011719 42.914062 160.710938 28.234375 162.726562 L 320.023438 162.726562 C 310.589844 161.429688 299.273438 160.265625 286.441406 159.269531 L 286.441406 155.851562 Z M 308.441406 142.671875 C 308.664062 142.558594 308.9375 142.644531 309.054688 142.867188 C 309.171875 143.089844 309.082031 143.367188 308.859375 143.480469 C 308.640625 143.597656 308.363281 143.507812 308.246094 143.289062 C 308.132812 143.066406 308.214844 142.789062 308.441406 142.671875 Z M 303.453125 136.507812 C 303.671875 136.390625 303.953125 136.480469 304.066406 136.703125 C 304.179688 136.925781 304.09375 137.199219 303.871094 137.316406 C 303.648438 137.433594 303.375 137.34375 303.257812 137.121094 C 303.144531 136.898438 303.230469 136.621094 303.453125 136.507812 Z M 286.429688 140.117188 L 291.597656 145.199219 C 292.359375 145.949219 292.273438 147.230469 291.410156 148.058594 C 290.542969 148.890625 289.222656 148.960938 288.464844 148.214844 L 287.707031 147.464844 C 287.433594 146.992188 287.355469 146.429688 287.46875 145.890625 C 287.089844 145.960938 286.75 145.90625 286.433594 145.761719 L 286.433594 140.117188 Z M 56.285156 140.355469 C 56.09375 142.558594 54.09375 144.195312 51.828125 143.996094 L 15.417969 140.84375 L 8.800781 140.273438 C 6.535156 140.074219 4.847656 138.121094 5.039062 135.917969 C 5.226562 133.710938 7.226562 132.078125 9.492188 132.273438 L 45.902344 135.425781 L 52.519531 136 C 54.785156 136.195312 56.476562 138.148438 56.285156 140.355469 Z M 80.132812 146.292969 L 68.953125 145.324219 C 68.710938 145.300781 68.53125 145.089844 68.550781 144.84375 C 68.574219 144.601562 68.789062 144.421875 69.03125 144.441406 L 80.210938 145.410156 C 80.453125 145.429688 80.632812 145.644531 80.609375 145.890625 C 80.589844 146.136719 80.375 146.316406 80.132812 146.292969 Z M 80.414062 143.03125 L 69.238281 142.0625 C 68.992188 142.042969 68.8125 141.828125 68.835938 141.585938 C 68.855469 141.34375 69.070312 141.164062 69.3125 141.183594 L 80.492188 142.152344 C 80.734375 142.175781 80.914062 142.390625 80.894531 142.632812 C 80.871094 142.875 80.65625 143.054688 80.414062 143.03125 Z M 80.695312 139.769531 L 69.519531 138.804688 C 69.273438 138.78125 69.09375 138.566406 69.117188 138.324219 C 69.136719 138.082031 69.351562 137.902344 69.597656 137.921875 L 80.773438 138.890625 C 81.015625 138.910156 81.195312 139.121094 81.175781 139.367188 C 81.152344 139.613281 80.9375 139.792969 80.695312 139.769531 Z M 85.804688 63.542969 C 86.621094 63.5625 87.773438 62.917969 88.734375 61.828125 C 89.695312 60.738281 90.191406 59.511719 90.066406 58.699219 C 90.40625 59.429688 89.945312 60.789062 88.902344 61.976562 C 87.855469 63.160156 86.566406 63.789062 85.804688 63.542969 Z M 89.988281 64.546875 C 89.519531 64.132812 89.503906 63.390625 89.945312 62.882812 C 90.390625 62.378906 91.128906 62.300781 91.597656 62.714844 L 106.113281 75.535156 L 106.050781 75.617188 L 91.636719 62.886719 C 91.175781 62.480469 90.464844 62.527344 90.054688 62.996094 C 89.644531 63.460938 89.6875 64.167969 90.148438 64.574219 L 104.722656 77.449219 L 104.675781 77.515625 Z M 154.511719 150.828125 L 90.457031 150.828125 L 90.457031 114.507812 L 122.828125 67.28125 L 154.511719 114.507812 Z M 248.496094 33.566406 L 248.496094 32.644531 L 249.296875 32.183594 L 249.757812 31.382812 L 250.679688 31.382812 L 251.480469 30.921875 L 252.28125 31.386719 L 253.203125 31.386719 L 253.664062 32.1875 L 254.460938 32.648438 L 254.460938 33.574219 L 254.921875 34.375 L 254.460938 35.175781 L 254.457031 36.097656 L 253.660156 36.558594 L 253.199219 37.359375 L 252.277344 37.359375 L 251.476562 37.820312 L 250.675781 37.355469 L 249.753906 37.355469 L 249.292969 36.554688 L 248.496094 36.09375 L 248.496094 35.171875 L 248.035156 34.371094 Z M 247.140625 36.566406 C 247.234375 37.273438 247.929688 38.132812 248.972656 38.734375 C 250.011719 39.339844 251.105469 39.511719 251.765625 39.242188 C 251.199219 39.683594 250.003906 39.566406 248.871094 38.910156 C 247.738281 38.253906 247.039062 37.273438 247.140625 36.566406 Z M 246.734375 40.375 C 247.015625 39.890625 247.664062 39.742188 248.1875 40.046875 C 248.710938 40.347656 248.90625 40.988281 248.625 41.472656 L 241.121094 54.460938 L 241.039062 54.460938 L 248.480469 41.578125 C 248.757812 41.097656 248.589844 40.484375 248.105469 40.203125 C 247.625 39.925781 247.007812 40.085938 246.730469 40.566406 L 238.703125 54.460938 L 238.59375 54.460938 Z M 224.5625 115.707031 L 224.5625 150.828125 L 202.859375 150.828125 L 202.859375 115.597656 L 224.570312 87.285156 L 246.273438 87.765625 L 224.570312 115.703125 Z M 260.507812 147.117188 L 239.707031 147.117188 L 239.707031 123.019531 L 260.507812 123.019531 Z M 303.382812 80.082031 L 331.195312 91.046875 C 331.601562 91.207031 332.058594 91.160156 332.421875 90.917969 L 343.347656 83.671875 C 343.960938 83.261719 344.132812 82.429688 343.722656 81.816406 L 341.628906 78.644531 L 339.398438 80.121094 L 340.75 82.175781 L 331.519531 88.296875 L 303.707031 77.332031 C 303.296875 77.175781 302.84375 77.222656 302.476562 77.460938 L 299.101562 79.703125 L 300.578125 81.9375 Z M 347.015625 74.277344 L 316.472656 28.101562 L 302.535156 37.34375 L 333.074219 83.519531 Z M 346.25 110.871094 L 346.027344 111.820312 L 345.9375 111.847656 L 345.222656 111.179688 L 345.003906 112.132812 L 344.910156 112.160156 L 344.199219 111.492188 L 343.976562 112.441406 L 343.882812 112.46875 L 343.171875 111.800781 L 342.949219 112.75 L 342.855469 112.777344 L 342.144531 112.113281 L 341.921875 113.058594 L 341.824219 113.089844 L 341.117188 112.425781 L 340.898438 113.371094 L 340.796875 113.402344 L 340.089844 112.734375 L 339.871094 113.683594 L 339.769531 113.710938 L 339.0625 113.046875 L 338.84375 113.992188 L 338.746094 114.023438 L 338.035156 113.363281 L 337.816406 114.304688 L 337.71875 114.335938 L 337.011719 113.675781 L 336.792969 114.617188 L 336.691406 114.648438 L 335.984375 113.988281 L 335.765625 114.929688 L 335.664062 114.960938 L 334.960938 114.300781 L 334.742188 115.238281 L 334.636719 115.273438 L 333.933594 114.613281 L 333.714844 115.550781 L 333.609375 115.582031 L 332.90625 114.921875 L 332.6875 115.863281 L 332.582031 115.894531 L 331.878906 115.238281 L 331.664062 116.171875 L 331.554688 116.207031 L 330.855469 115.546875 L 330.636719 116.484375 L 330.53125 116.515625 L 329.832031 115.863281 L 329.609375 116.796875 L 329.503906 116.828125 L 328.800781 116.171875 L 328.582031 117.105469 L 328.472656 117.136719 L 327.777344 116.484375 L 327.5625 117.414062 L 327.449219 117.449219 L 326.75 116.796875 L 326.535156 117.726562 L 326.421875 117.761719 L 325.726562 117.105469 L 325.507812 118.035156 L 325.394531 118.070312 L 324.699219 117.417969 L 324.484375 118.347656 L 324.371094 118.382812 L 323.671875 117.730469 L 323.457031 118.660156 L 323.34375 118.695312 L 322.648438 118.042969 L 322.433594 118.96875 L 322.316406 119.003906 L 321.625 118.355469 L 321.40625 119.277344 L 321.289062 119.3125 L 320.597656 118.664062 L 320.378906 119.589844 L 320.261719 119.625 L 319.570312 118.976562 L 319.355469 119.898438 L 319.234375 119.9375 L 318.542969 119.289062 L 318.328125 120.210938 L 318.203125 120.25 L 317.515625 119.605469 L 317.300781 120.523438 L 317.175781 120.5625 L 316.488281 119.917969 L 316.273438 120.832031 L 316.148438 120.867188 L 315.460938 120.222656 L 315.246094 121.140625 L 315.121094 121.179688 L 314.433594 120.535156 L 314.21875 121.457031 L 314.09375 121.492188 L 313.40625 120.851562 L 313.195312 121.765625 L 313.066406 121.804688 L 312.382812 121.164062 L 312.167969 122.074219 L 312.042969 122.113281 L 311.355469 121.472656 L 311.140625 122.386719 L 311.011719 122.425781 L 310.328125 121.785156 L 310.117188 122.695312 L 309.988281 122.738281 L 309.300781 122.097656 L 309.09375 123.007812 L 308.960938 123.046875 L 308.277344 122.414062 L 308.066406 123.320312 L 307.933594 123.359375 L 307.25 122.726562 L 307.042969 123.628906 L 306.90625 123.671875 L 306.226562 123.035156 L 306.015625 123.941406 L 305.878906 123.980469 L 305.199219 123.34375 L 304.992188 124.25 L 304.851562 124.292969 L 304.171875 123.652344 L 303.964844 124.558594 L 303.828125 124.601562 L 303.148438 123.964844 L 302.9375 124.871094 L 302.800781 124.910156 L 302.121094 124.277344 L 301.914062 125.179688 L 301.773438 125.222656 L 301.097656 124.585938 L 300.886719 125.492188 L 300.746094 125.535156 L 300.070312 124.90625 L 299.863281 125.804688 L 299.71875 125.84375 L 299.046875 125.214844 L 298.835938 126.113281 L 298.691406 126.15625 L 298.019531 125.527344 L 297.808594 126.425781 L 297.667969 126.46875 L 296.996094 125.835938 L 296.785156 126.734375 L 296.640625 126.777344 L 295.96875 126.152344 L 295.761719 127.042969 L 295.613281 127.085938 L 294.941406 126.460938 L 294.734375 127.355469 L 294.582031 127.398438 L 293.914062 126.769531 L 293.707031 127.660156 L 293.558594 127.707031 L 292.886719 127.082031 L 292.679688 127.972656 L 292.53125 128.019531 L 291.863281 127.390625 L 291.65625 128.28125 L 291.503906 128.324219 L 290.835938 127.703125 L 290.628906 128.59375 L 290.480469 128.636719 L 289.808594 128.011719 L 289.601562 128.902344 L 289.449219 128.949219 L 288.78125 128.324219 L 288.578125 129.210938 L 288.421875 129.257812 L 287.757812 128.636719 L 287.550781 129.523438 L 287.394531 129.566406 L 286.730469 128.945312 L 286.558594 129.695312 L 304.867188 135.433594 L 310.992188 143.09375 L 374.644531 110.027344 L 371.523438 104.003906 L 370.871094 103.394531 L 370.644531 104.375 L 370.578125 104.394531 L 369.84375 103.707031 L 369.617188 104.683594 L 369.550781 104.707031 L 368.816406 104.019531 L 368.59375 104.996094 L 368.527344 105.015625 L 367.792969 104.332031 L 367.566406 105.304688 L 367.5 105.324219 L 366.765625 104.640625 L 366.542969 105.613281 L 366.472656 105.636719 L 365.742188 104.953125 L 365.511719 105.925781 L 365.445312 105.945312 L 364.714844 105.261719 L 364.492188 106.234375 L 364.417969 106.257812 L 363.691406 105.574219 L 363.464844 106.542969 L 363.390625 106.566406 L 362.664062 105.886719 L 362.441406 106.855469 L 362.367188 106.878906 L 361.636719 106.195312 L 361.410156 107.167969 L 361.339844 107.191406 L 360.609375 106.507812 L 360.382812 107.476562 L 360.3125 107.5 L 359.585938 106.816406 L 359.359375 107.785156 L 359.285156 107.808594 L 358.558594 107.128906 L 358.335938 108.097656 L 358.257812 108.121094 L 357.53125 107.441406 L 357.308594 108.40625 L 357.230469 108.429688 L 356.507812 107.753906 L 356.28125 108.71875 L 356.199219 108.742188 L 355.476562 108.070312 L 355.25 109.027344 L 355.171875 109.054688 L 354.449219 108.378906 L 354.230469 109.339844 L 354.144531 109.363281 L 353.421875 108.691406 L 353.203125 109.648438 L 353.113281 109.675781 L 352.398438 109.003906 L 352.171875 109.960938 L 352.085938 109.988281 L 351.371094 109.3125 L 351.148438 110.269531 L 351.058594 110.296875 L 350.34375 109.621094 L 350.117188 110.578125 L 350.03125 110.605469 L 349.3125 109.933594 L 349.089844 110.890625 L 349 110.914062 L 348.285156 110.246094 L 348.0625 111.199219 L 347.976562 111.226562 L 347.261719 110.554688 L 347.035156 111.515625 L 346.945312 111.539062 Z M 192.757812 28.363281 L 192.695312 28.34375 L 192.667969 28.441406 L 192.570312 28.414062 L 192.550781 28.476562 L 192.648438 28.503906 L 192.617188 28.597656 L 192.679688 28.613281 L 192.707031 28.519531 L 192.804688 28.546875 L 192.820312 28.488281 L 192.726562 28.457031 Z M 204.753906 24.257812 L 204.820312 24.277344 L 204.847656 24.179688 L 204.941406 24.207031 L 204.960938 24.144531 L 204.863281 24.121094 L 204.894531 24.023438 L 204.832031 24.003906 L 204.804688 24.097656 L 204.707031 24.074219 L 204.691406 24.132812 L 204.785156 24.164062 Z M 115.84375 41.285156 C 115.859375 42.769531 115.242188 43.851562 116.421875 45.253906 C 118.683594 47.9375 119.992188 47.164062 123.46875 46.691406 C 124.082031 46.609375 124.539062 47.28125 125.019531 47.664062 C 125.578125 48.207031 127.183594 46.960938 126.796875 46.46875 C 125.777344 45.546875 124.605469 44.777344 123.328125 44.867188 C 122.027344 44.953125 120.488281 45.976562 119.316406 45.410156 C 117.363281 44.464844 117.910156 41.96875 115.84375 41.285156 Z M 303.636719 137 L 303.726562 137.179688 L 303.84375 137.117188 L 303.75 136.9375 L 303.929688 136.847656 L 303.871094 136.730469 L 303.691406 136.824219 L 303.597656 136.644531 L 303.484375 136.703125 L 303.578125 136.882812 L 303.398438 136.976562 L 303.457031 137.089844 Z M 108.285156 122.804688 L 119.949219 122.804688 L 119.949219 110.421875 L 108.285156 110.421875 Z M 108.285156 139.46875 L 119.949219 139.46875 L 119.949219 127.085938 L 108.285156 127.085938 Z M 123.988281 139.46875 L 135.65625 139.46875 L 135.65625 127.085938 L 123.988281 127.085938 Z M 52.34375 138.734375 L 9.40625 135.015625 C 8.652344 134.949219 7.984375 135.511719 7.921875 136.265625 C 7.855469 137.023438 8.414062 137.691406 9.171875 137.753906 L 52.105469 141.46875 C 52.863281 141.535156 53.527344 140.976562 53.589844 140.21875 C 53.65625 139.464844 53.097656 138.800781 52.34375 138.734375 Z M 147.824219 39.667969 L 162.65625 36.128906 L 161.09375 29.554688 L 146.261719 33.09375 Z M 108.3125 41.40625 C 109.773438 45.453125 114.460938 47.886719 116.863281 46.304688 C 116.621094 46.082031 116.375 45.820312 116.117188 45.511719 C 115.144531 44.355469 115.257812 43.347656 115.367188 42.371094 C 115.402344 42.054688 115.4375 41.726562 115.4375 41.390625 L 103.34375 17.226562 L 115.796875 40.886719 C 115.855469 40.878906 115.914062 40.882812 115.96875 40.902344 C 117.207031 41.3125 117.644531 42.300781 118.027344 43.171875 C 118.125 43.394531 118.222656 43.609375 118.328125 43.816406 C 119.113281 40.8125 119.167969 35.441406 116.910156 32.109375 C 112.617188 25.78125 107.9375 20.9375 103.097656 14.777344 C 102.078125 13.480469 100.824219 14.164062 101.21875 15.804688 C 103.285156 24.484375 105.324219 33.109375 108.3125 41.40625 Z M 161.007812 29.195312 L 158.738281 19.664062 L 158.085938 19.820312 L 158.746094 22.804688 L 157.921875 19.859375 L 157.027344 20.074219 L 158.390625 26.15625 L 156.746094 20.140625 L 156.199219 20.269531 L 157.058594 24.15625 L 155.984375 20.324219 L 153.613281 20.886719 L 154.210938 23.589844 L 153.464844 20.921875 L 152.894531 21.058594 L 153.753906 24.941406 L 152.679688 21.109375 L 149.871094 21.78125 L 150.664062 25.367188 L 149.671875 21.828125 L 149.054688 21.976562 L 149.917969 25.859375 L 148.84375 22.027344 L 146.648438 22.550781 L 147.566406 26.695312 L 146.417969 22.605469 L 145.160156 22.90625 L 145.863281 26.078125 L 144.984375 22.949219 L 143.910156 23.203125 L 146.175781 32.734375 Z M 308.621094 143.167969 L 308.714844 143.347656 L 308.832031 143.289062 L 308.738281 143.105469 L 308.917969 143.015625 L 308.859375 142.902344 L 308.679688 142.992188 L 308.585938 142.8125 L 308.472656 142.871094 L 308.566406 143.050781 L 308.386719 143.148438 L 308.445312 143.261719 Z M 44.386719 105.78125 L 46.121094 104.714844 C 46.121094 104.714844 38.558594 97.453125 41.898438 91.546875 C 43.949219 87.914062 48.300781 89.65625 49.691406 90.332031 L 54.828125 81.246094 C 54.753906 81.210938 54.6875 81.175781 54.617188 81.140625 C 51.9375 79.621094 51.15625 74.863281 53.042969 71.863281 C 55.183594 68.449219 57.375 67.402344 57.375 67.402344 L 59.84375 63.039062 L 48.050781 56.351562 L 45.308594 61.203125 C 46.136719 62.96875 46.066406 65.257812 44.929688 67.265625 C 43.792969 69.273438 41.878906 70.507812 39.933594 70.707031 L 39.132812 72.132812 C 39.132812 72.132812 36.640625 75.753906 33.15625 82.695312 C 29.109375 90.769531 44.386719 105.78125 44.386719 105.78125 Z M 44.386719 105.78125 " fill-opacity="1" fill-rule="nonzero"/></g><g fill="#000000" fill-opacity="1"><g transform="translate(85.15314, 209.739974)"><g><path d="M 11.761719 -39.046875 C 11.328125 -39.097656 10.835938 -39.207031 10.402344 -39.261719 C 7.789062 -39.699219 4.355469 -39.753906 4.136719 -36.375 C 3.429688 -26.519531 2.996094 -16.609375 2.722656 -6.699219 C 2.667969 -4.957031 4.136719 -3.320312 5.828125 -3.105469 C 7.078125 -2.941406 8.386719 -3.265625 9.640625 -3.703125 C 13.996094 -5.117188 19.277344 -6.808594 22.816406 -9.855469 C 26.03125 -12.578125 28.425781 -16.335938 28.917969 -20.53125 C 29.515625 -25.59375 27.226562 -30.386719 23.523438 -33.761719 C 20.148438 -36.8125 16.117188 -38.171875 11.761719 -39.046875 Z M 20.476562 -20.039062 C 18.949219 -15.792969 15.03125 -14.214844 11 -12.90625 C 11.21875 -18.789062 11.542969 -24.722656 11.871094 -30.660156 C 16.9375 -29.570312 22.597656 -25.976562 20.476562 -20.039062 Z M 20.476562 -20.039062 "/></g></g></g><g fill="#000000" fill-opacity="1"><g transform="translate(116.951617, 209.739974)"><g><path d="M 5.171875 -33.542969 C 4.085938 -23.742188 3.265625 -13.886719 2.722656 -4.03125 C 2.394531 1.253906 10.566406 1.199219 10.890625 -4.03125 C 11.4375 -13.886719 12.253906 -23.742188 13.339844 -33.542969 C 13.886719 -38.773438 5.71875 -38.773438 5.171875 -33.542969 Z M 5.171875 -33.542969 "/></g></g></g><g fill="#000000" fill-opacity="1"><g transform="translate(133.068652, 209.739974)"><g><path d="M 21.945312 -35.125 C 21.566406 -31.964844 21.183594 -28.753906 20.746094 -25.59375 C 19.441406 -22.980469 15.410156 -18.734375 12.363281 -20.746094 C 9.3125 -22.761719 11.109375 -29.515625 12.199219 -32.019531 C 14.320312 -36.867188 6.914062 -40.296875 4.792969 -35.449219 C 1.851562 -28.644531 1.035156 -17.371094 8.929688 -13.339844 C 11.871094 -11.816406 15.03125 -11.871094 18.023438 -12.90625 C 17.042969 -10.511719 15.519531 -8.441406 13.070312 -7.351562 C 8.332031 -5.171875 11.164062 2.449219 16.011719 0.273438 C 28.589844 -5.390625 28.480469 -21.945312 30.003906 -33.707031 C 30.660156 -38.9375 22.652344 -40.351562 21.945312 -35.125 Z M 21.945312 -35.125 "/></g></g></g><g fill="#000000" fill-opacity="1"><g transform="translate(165.847218, 209.739974)"><g><path d="M 24.015625 -22.871094 C 18.1875 -22.980469 12.414062 -23.144531 6.644531 -23.253906 C 1.363281 -23.363281 1.363281 -15.191406 6.644531 -15.085938 C 12.414062 -14.976562 18.1875 -14.8125 24.015625 -14.703125 C 29.242188 -14.59375 29.242188 -22.761719 24.015625 -22.871094 Z M 24.015625 -22.871094 "/></g></g></g><g fill="#000000" fill-opacity="1"><g transform="translate(196.502264, 209.739974)"><g><path d="M 22.707031 -11.542969 C 18.949219 -11.707031 15.191406 -11.542969 11.488281 -11.21875 C 11.761719 -13.289062 12.089844 -15.355469 12.363281 -17.425781 C 14.214844 -17.425781 16.066406 -17.371094 17.914062 -17.152344 C 20.148438 -16.9375 22 -19.167969 22 -21.238281 C 22 -23.632812 20.148438 -25.105469 17.914062 -25.320312 C 16.5 -25.484375 15.085938 -25.539062 13.613281 -25.59375 C 13.941406 -27.664062 14.320312 -29.789062 14.648438 -31.910156 C 17.425781 -31.910156 20.148438 -31.800781 22.925781 -31.640625 C 28.152344 -31.257812 28.152344 -39.425781 22.925781 -39.808594 C 19.003906 -40.078125 15.03125 -40.132812 11.109375 -39.96875 C 9.585938 -39.96875 8.496094 -39.207031 7.839844 -38.171875 C 7.570312 -37.738281 7.351562 -37.195312 7.242188 -36.59375 C 5.445312 -26.574219 3.976562 -16.554688 2.722656 -6.535156 C 2.339844 -3.59375 5.609375 -2.234375 7.894531 -2.558594 C 12.796875 -3.375 17.753906 -3.59375 22.707031 -3.375 C 27.9375 -3.160156 27.9375 -11.328125 22.707031 -11.542969 Z M 22.707031 -11.542969 "/></g></g></g><g fill="#000000" fill-opacity="1"><g transform="translate(226.068314, 209.739974)"><g><path d="M 30.929688 -5.171875 C 27.9375 -9.257812 24.503906 -12.90625 20.585938 -16.066406 C 23.523438 -18.132812 25.976562 -21.019531 27.011719 -24.125 C 29.078125 -30.332031 23.523438 -36.429688 17.207031 -36.160156 C 10.511719 -35.832031 6.097656 -29.625 4.902344 -23.578125 C 3.320312 -15.738281 3.320312 -7.40625 2.722656 0.542969 C 2.289062 5.773438 10.457031 5.773438 10.890625 0.542969 C 11.21875 -3.757812 11.542969 -8.058594 11.925781 -12.363281 C 16.554688 -9.3125 20.585938 -5.554688 23.90625 -1.035156 C 26.957031 3.160156 34.089844 -0.925781 30.929688 -5.171875 Z M 19.277344 -26.957031 C 19.496094 -26.085938 17.042969 -23.90625 16.390625 -23.308594 C 15.246094 -22.273438 14.160156 -21.511719 12.742188 -21.347656 C 12.90625 -22.273438 13.125 -23.199219 13.503906 -24.070312 C 13.886719 -25.105469 18.515625 -30.660156 19.277344 -26.957031 Z M 19.277344 -26.957031 "/></g></g></g><g fill="#000000" fill-opacity="1"><g transform="translate(260.534826, 209.739974)"><g><path d="M 20.257812 -23.578125 C 18.839844 -24.558594 15.574219 -25.429688 14.921875 -27.117188 C 13.941406 -29.789062 17.589844 -31.695312 19.441406 -32.566406 C 24.179688 -34.796875 20.039062 -41.820312 15.300781 -39.589844 C 8.003906 -36.160156 2.941406 -26.464844 10.238281 -20.148438 C 12.796875 -17.914062 17.863281 -17.042969 18.40625 -13.015625 C 18.625 -11.328125 17.808594 -9.746094 16.28125 -9.09375 C 15.246094 -8.660156 11.4375 -8.058594 10.566406 -9.257812 C 7.40625 -13.394531 0.328125 -9.3125 3.484375 -5.117188 C 9.910156 3.375 25.265625 -0.21875 26.464844 -11.109375 C 27.011719 -16.117188 24.394531 -20.855469 20.257812 -23.578125 Z M 20.257812 -23.578125 "/></g></g></g></svg>